<svg width="39" height="39" viewBox="0 0 39 39" fill="none" xmlns="http://www.w3.org/2000/svg">
<g filter="url(#filter0_d_5_76)">
<path d="M2 5.16327C2 3.41624 3.41624 2 5.16327 2H29.8367C31.5838 2 33 3.41624 33 5.16327V29.8367C33 31.5838 31.5838 33 29.8367 33H5.16327C3.41624 33 2 31.5838 2 29.8367V5.16327Z" fill="white"/>
<path d="M29.8369 1C32.1361 1.0001 33.9999 2.86392 34 5.16309V29.8369C33.9999 32.1361 32.1361 33.9999 29.8369 34H5.16309C2.86392 33.9999 1.0001 32.1361 1 29.8369V5.16309C1.0001 2.86392 2.86392 1.0001 5.16309 1H29.8369Z" stroke="black" stroke-width="2"/>
</g>
<path d="M11.8062 8.95918C11.8062 10.5315 10.5316 11.8061 8.95924 11.8061C7.38692 11.8061 6.1123 10.5315 6.1123 8.95918C6.1123 7.38686 7.38692 6.11224 8.95924 6.11224C10.5316 6.11224 11.8062 7.38686 11.8062 8.95918Z" fill="black"/>
<path d="M11.8062 26.0408C11.8062 27.6131 10.5316 28.8877 8.95924 28.8877C7.38692 28.8877 6.1123 27.6131 6.1123 26.0408C6.1123 24.4685 7.38692 23.1938 8.95924 23.1938C10.5316 23.1938 11.8062 24.4685 11.8062 26.0408Z" fill="black"/>
<path d="M28.8877 8.95918C28.8877 10.5315 27.6131 11.8061 26.0408 11.8061C24.4685 11.8061 23.1938 10.5315 23.1938 8.95918C23.1938 7.38686 24.4685 6.11224 26.0408 6.11224C27.6131 6.11224 28.8877 7.38686 28.8877 8.95918Z" fill="black"/>
<path d="M28.8877 26.0408C28.8877 27.6131 27.6131 28.8877 26.0408 28.8877C24.4685 28.8877 23.1938 27.6131 23.1938 26.0408C23.1938 24.4685 24.4685 23.1938 26.0408 23.1938C27.6131 23.1938 28.8877 24.4685 28.8877 26.0408Z" fill="black"/>
<path d="M20.6105 17.7636C20.6105 19.336 19.3359 20.6106 17.7636 20.6106C16.1912 20.6106 14.9166 19.336 14.9166 17.7636C14.9166 16.1913 16.1912 14.9167 17.7636 14.9167C19.3359 14.9167 20.6105 16.1913 20.6105 17.7636Z" fill="black"/>
<defs>
<filter id="filter0_d_5_76" x="0" y="0" width="39" height="39" filterUnits="userSpaceOnUse" color-interpolation-filters="sRGB">
<feFlood flood-opacity="0" result="BackgroundImageFix"/>
<feColorMatrix in="SourceAlpha" type="matrix" values="0 0 0 0 0 0 0 0 0 0 0 0 0 0 0 0 0 0 127 0" result="hardAlpha"/>
<feOffset dx="4" dy="4"/>
<feColorMatrix type="matrix" values="0 0 0 0 0 0 0 0 0 0 0 0 0 0 0 0 0 0 1 0"/>
<feBlend mode="normal" in2="BackgroundImageFix" result="effect1_dropShadow_5_76"/>
<feBlend mode="normal" in="SourceGraphic" in2="effect1_dropShadow_5_76" result="shape"/>
</filter>
</defs>
</svg>
