<svg width="40" height="39" viewBox="0 0 40 39" fill="none" xmlns="http://www.w3.org/2000/svg">
<g filter="url(#filter0_d_5_78)">
<path d="M2 5.16327C2 3.41624 3.46193 2 5.26531 2L30.7347 2C32.5381 2 34 3.41624 34 5.16327V29.8367C34 31.5838 32.5381 33 30.7347 33H5.26531C3.46193 33 2 31.5838 2 29.8367L2 5.16327Z" fill="white"/>
<path d="M30.7344 1C33.0598 1 34.9999 2.83417 35 5.16309V29.8369C34.9999 32.1658 33.0598 34 30.7344 34H5.26562C2.94019 34 1.0001 32.1658 1 29.8369L1 5.16309C1.0001 2.83417 2.94019 1 5.26562 1L30.7344 1Z" stroke="black" stroke-width="2"/>
</g>
<path d="M20.9388 17.5C20.9388 19.0723 19.6231 20.347 18.0001 20.347C16.377 20.347 15.0613 19.0723 15.0613 17.5C15.0613 15.9277 16.377 14.6531 18.0001 14.6531C19.6231 14.6531 20.9388 15.9277 20.9388 17.5Z" fill="black"/>
<path d="M12.1224 26.0408C12.1224 27.6132 10.8067 28.8878 9.18365 28.8878C7.56061 28.8878 6.24487 27.6132 6.24487 26.0408C6.24487 24.4685 7.56061 23.1939 9.18365 23.1939C10.8067 23.1939 12.1224 24.4685 12.1224 26.0408Z" fill="black"/>
<path d="M29.7551 8.95918C29.7551 10.5315 28.4394 11.8061 26.8163 11.8061C25.1933 11.8061 23.8776 10.5315 23.8776 8.95918C23.8776 7.38686 25.1933 6.11224 26.8163 6.11224C28.4394 6.11224 29.7551 7.38686 29.7551 8.95918Z" fill="black"/>
<defs>
<filter id="filter0_d_5_78" x="0" y="0" width="40" height="39" filterUnits="userSpaceOnUse" color-interpolation-filters="sRGB">
<feFlood flood-opacity="0" result="BackgroundImageFix"/>
<feColorMatrix in="SourceAlpha" type="matrix" values="0 0 0 0 0 0 0 0 0 0 0 0 0 0 0 0 0 0 127 0" result="hardAlpha"/>
<feOffset dx="4" dy="4"/>
<feColorMatrix type="matrix" values="0 0 0 0 0 0 0 0 0 0 0 0 0 0 0 0 0 0 1 0"/>
<feBlend mode="normal" in2="BackgroundImageFix" result="effect1_dropShadow_5_78"/>
<feBlend mode="normal" in="SourceGraphic" in2="effect1_dropShadow_5_78" result="shape"/>
</filter>
</defs>
</svg>
