<svg width="39" height="39" viewBox="0 0 39 39" fill="none" xmlns="http://www.w3.org/2000/svg">
<g filter="url(#filter0_d_5_74)">
<path d="M2 5.16327C2 3.41624 3.41624 2 5.16327 2L29.8367 2C31.5838 2 33 3.41624 33 5.16327L33 29.8367C33 31.5838 31.5838 33 29.8367 33L5.16327 33C3.41624 33 2 31.5838 2 29.8367L2 5.16327Z" fill="white"/>
<path d="M29.8369 1C32.1361 1.0001 33.9999 2.86392 34 5.16309L34 29.8369C33.9999 32.1361 32.1361 33.9999 29.8369 34L5.16309 34C2.86392 33.9999 1.0001 32.1361 1 29.8369L1 5.16309C1.0001 2.86392 2.86392 1.0001 5.16309 1L29.8369 1Z" stroke="black" stroke-width="2"/>
</g>
<path d="M28.8878 8.95918C28.8878 10.5315 27.6132 11.8061 26.0408 11.8061C24.4685 11.8061 23.1939 10.5315 23.1939 8.95918C23.1939 7.38686 24.4685 6.11224 26.0408 6.11224C27.6132 6.11224 28.8878 7.38686 28.8878 8.95918Z" fill="black"/>
<path d="M11.8061 26.0408C11.8061 27.6132 10.5315 28.8878 8.95918 28.8878C7.38686 28.8878 6.11224 27.6132 6.11224 26.0408C6.11224 24.4685 7.38686 23.1939 8.95918 23.1939C10.5315 23.1939 11.8061 24.4685 11.8061 26.0408Z" fill="black"/>
<defs>
<filter id="filter0_d_5_74" x="0" y="0" width="39" height="39" filterUnits="userSpaceOnUse" color-interpolation-filters="sRGB">
<feFlood flood-opacity="0" result="BackgroundImageFix"/>
<feColorMatrix in="SourceAlpha" type="matrix" values="0 0 0 0 0 0 0 0 0 0 0 0 0 0 0 0 0 0 127 0" result="hardAlpha"/>
<feOffset dx="4" dy="4"/>
<feColorMatrix type="matrix" values="0 0 0 0 0 0 0 0 0 0 0 0 0 0 0 0 0 0 1 0"/>
<feBlend mode="normal" in2="BackgroundImageFix" result="effect1_dropShadow_5_74"/>
<feBlend mode="normal" in="SourceGraphic" in2="effect1_dropShadow_5_74" result="shape"/>
</filter>
</defs>
</svg>
