<svg width="40" height="39" viewBox="0 0 40 39" fill="none" xmlns="http://www.w3.org/2000/svg">
<g filter="url(#filter0_d_5_79)">
<path d="M2 5.16327C2 3.41624 3.46193 2 5.26531 2H30.7347C32.5381 2 34 3.41624 34 5.16327V29.8367C34 31.5838 32.5381 33 30.7347 33H5.26531C3.46193 33 2 31.5838 2 29.8367V5.16327Z" fill="white"/>
<path d="M30.7344 1C33.0598 1 34.9999 2.83417 35 5.16309V29.8369C34.9999 32.1658 33.0598 34 30.7344 34H5.26562C2.94019 34 1.0001 32.1658 1 29.8369V5.16309C1.0001 2.83417 2.94019 1 5.26562 1H30.7344Z" stroke="black" stroke-width="2"/>
</g>
<path d="M12.1224 8.95918C12.1224 10.5315 10.8067 11.8061 9.18365 11.8061C7.56061 11.8061 6.24487 10.5315 6.24487 8.95918C6.24487 7.38686 7.56061 6.11224 9.18365 6.11224C10.8067 6.11224 12.1224 7.38686 12.1224 8.95918Z" fill="black"/>
<path d="M12.1224 26.0408C12.1224 27.6131 10.8067 28.8877 9.18365 28.8877C7.56061 28.8877 6.24487 27.6131 6.24487 26.0408C6.24487 24.4685 7.56061 23.1938 9.18365 23.1938C10.8067 23.1938 12.1224 24.4685 12.1224 26.0408Z" fill="black"/>
<path d="M29.7551 8.95918C29.7551 10.5315 28.4394 11.8061 26.8163 11.8061C25.1933 11.8061 23.8776 10.5315 23.8776 8.95918C23.8776 7.38686 25.1933 6.11224 26.8163 6.11224C28.4394 6.11224 29.7551 7.38686 29.7551 8.95918Z" fill="black"/>
<path d="M29.7551 26.0408C29.7551 27.6131 28.4394 28.8877 26.8163 28.8877C25.1933 28.8877 23.8776 27.6131 23.8776 26.0408C23.8776 24.4685 25.1933 23.1938 26.8163 23.1938C28.4394 23.1938 29.7551 24.4685 29.7551 26.0408Z" fill="black"/>
<defs>
<filter id="filter0_d_5_79" x="0" y="0" width="40" height="39" filterUnits="userSpaceOnUse" color-interpolation-filters="sRGB">
<feFlood flood-opacity="0" result="BackgroundImageFix"/>
<feColorMatrix in="SourceAlpha" type="matrix" values="0 0 0 0 0 0 0 0 0 0 0 0 0 0 0 0 0 0 127 0" result="hardAlpha"/>
<feOffset dx="4" dy="4"/>
<feColorMatrix type="matrix" values="0 0 0 0 0 0 0 0 0 0 0 0 0 0 0 0 0 0 1 0"/>
<feBlend mode="normal" in2="BackgroundImageFix" result="effect1_dropShadow_5_79"/>
<feBlend mode="normal" in="SourceGraphic" in2="effect1_dropShadow_5_79" result="shape"/>
</filter>
</defs>
</svg>
